# File created by Blade
# Date/Time:  Mon Sep 22 17:46:01 2014
# Frame Rate: 120.000 fps
#------------------------------------------------------
:FULLY-SPECIFIED
:DEGREES
1700
root 5.553371 36.993543 6.035252 -15.407678 -13.235530 -4.241096
RightUpLeg 5.520092 -29.379543 -15.384188
RightLeg 116.447725 -0.000000 -0.000000
RightFoot -6.245798 -18.818716 9.914946
RightToeBase -5.107146 -0.000000 0.000000
LeftUpLeg 24.672109 5.436247 -3.197711
LeftLeg -0.497450 -0.000000 0.000000
LeftFoot -14.183677 15.549014 -10.002746
LeftToeBase 6.508791 -0.000000 -0.000000
Spine 21.832560 -3.462580 -10.885429
RightShoulder 0.728256 -31.466724 -4.862160
RightArm 20.629385 -22.481315 64.878929
RightForeArm 6.957012 -0.000000 48.522808
RightHand -3.374369 -0.000000 -8.215348
RightHandThumb1 -24.326973 -0.000000 -32.862282
LeftShoulder -18.016635 33.850516 0.457245
LeftArm 52.515514 -16.089337 -72.549333
LeftForeArm 26.120019 -0.000000 114.413775
LeftHand -26.502082 -0.000000 12.176132
LeftHandThumb1 -26.253704 0.000000 33.147579
Head 24.395356 1.205695 12.741093
1701
root 5.558208 36.996776 6.037677 -15.468632 -13.170827 -4.214115
RightUpLeg 5.551589 -29.412424 -15.467804
RightLeg 116.857332 -0.000000 -0.000000
RightFoot -6.269483 -18.687095 10.024846
RightToeBase -5.324214 -0.000000 0.000000
LeftUpLeg 24.646450 5.520474 -3.176260
LeftLeg -0.325516 -0.000000 0.000000
LeftFoot -14.202049 15.368033 -10.018837
LeftToeBase 6.517803 -0.000000 -0.000000
Spine 21.938213 -3.515065 -10.931892
RightShoulder 0.751305 -31.483283 -4.913141
RightArm 20.629229 -22.538286 64.907131
RightForeArm 7.005466 -0.000000 48.544356
RightHand -3.395482 -0.000000 -8.183929
RightHandThumb1 -24.326973 -0.000000 -32.862282
LeftShoulder -18.021023 33.856673 0.473995
LeftArm 52.536883 -15.913368 -72.416532
LeftForeArm 26.530741 -0.000000 114.374069
LeftHand -26.538764 -0.000000 12.363328
LeftHandThumb1 -26.253704 0.000000 33.147579
Head 24.439582 1.229295 12.633608
1702
root 5.563617 36.999572 6.038146 -15.523131 -13.063764 -4.230000
RightUpLeg 5.607681 -29.534753 -15.547126
RightLeg 117.214035 -0.000000 -0.000000
RightFoot -6.253433 -18.748123 9.961885
RightToeBase -5.444614 -0.000000 0.000000
LeftUpLeg 24.616871 5.421345 -3.184212
LeftLeg -0.160104 -0.000000 0.000000
LeftFoot -14.255622 15.328478 -10.017643
LeftToeBase 6.468161 -0.000000 -0.000000
Spine 22.066344 -3.620283 -10.929113
RightShoulder 0.768753 -31.489375 -4.985880
RightArm 20.632500 -22.606944 64.938853
RightForeArm 7.066279 -0.000000 48.547844
RightHand -3.355332 -0.000000 -8.189538
RightHandThumb1 -24.326973 -0.000000 -32.862282
LeftShoulder -18.003019 33.828820 0.480206
LeftArm 52.513447 -15.836460 -72.371374
LeftForeArm 26.256690 -0.000000 114.419933
LeftHand -26.440330 -0.000000 12.108167
LeftHandThumb1 -26.253704 0.000000 33.147579
Head 24.470660 1.293987 12.572693
1703
root 5.573319 37.001858 6.038515 -15.597828 -12.914723 -4.227212
RightUpLeg 5.686177 -29.670095 -15.707367
RightLeg 117.522282 -0.000000 -0.000000
RightFoot -6.234756 -18.750268 9.901767
RightToeBase -5.893927 -0.000000 0.000000
LeftUpLeg 24.616480 5.173498 -3.278665
LeftLeg -0.035750 -0.000000 0.000000
LeftFoot -14.292372 15.403124 -10.044118
LeftToeBase 6.414573 -0.000000 -0.000000
Spine 22.229603 -3.759047 -10.965692
RightShoulder 0.793034 -31.458076 -5.058030
RightArm 20.628983 -22.722206 64.954488
RightForeArm 7.078658 -0.000000 48.537295
RightHand -3.337453 -0.000000 -8.205226
RightHandThumb1 -24.326973 -0.000000 -32.862282
LeftShoulder -18.005738 33.795078 0.498812
LeftArm 52.509298 -15.698113 -72.310713
LeftForeArm 26.335530 -0.000000 114.437001
LeftHand -26.540786 -0.000000 12.097902
LeftHandThumb1 -26.253704 0.000000 33.147579
Head 24.480198 1.339593 12.512331
1704
root 5.578712 37.003610 6.042821 -15.659687 -12.853179 -4.222915
RightUpLeg 5.713598 -29.727535 -15.821306
RightLeg 117.775211 -0.000000 -0.000000
RightFoot -6.228996 -18.761843 9.842749
RightToeBase -5.382000 -0.000000 0.000000
LeftUpLeg 24.627530 5.070220 -3.318295
LeftLeg 0.071728 -0.000000 -0.000000
LeftFoot -14.337631 15.399841 -10.078000
LeftToeBase 6.459780 -0.000000 -0.000000
Spine 22.335998 -3.819722 -10.971562
RightShoulder 0.799376 -31.493593 -5.123720
RightArm 20.672833 -22.820732 64.938129
RightForeArm 7.089233 -0.000000 48.528404
RightHand -3.394542 -0.000000 -7.984589
RightHandThumb1 -24.326973 -0.000000 -32.862282
LeftShoulder -18.014062 33.802381 0.500011
LeftArm 52.510152 -15.587924 -72.274319
LeftForeArm 26.346596 0.000000 114.456442
LeftHand -26.496699 -0.000000 12.143648
LeftHandThumb1 -26.253704 0.000000 33.147579
Head 24.507891 1.379714 12.442772
1705
root 5.586172 37.004517 6.047467 -15.719361 -12.822633 -4.199522
RightUpLeg 5.704069 -29.723879 -15.929630
RightLeg 117.949938 -0.000000 -0.000000
RightFoot -6.226600 -18.719266 9.818881
RightToeBase -5.841939 -0.000000 0.000000
LeftUpLeg 24.631157 5.066473 -3.339406
LeftLeg 0.186183 -0.000000 -0.000000
LeftFoot -14.350207 15.323193 -10.086842
LeftToeBase 6.389493 -0.000000 -0.000000
Spine 22.426848 -3.840769 -10.981138
RightShoulder 0.807464 -31.509143 -5.185385
RightArm 20.681416 -22.909391 64.932400
RightForeArm 7.096082 0.000000 48.531198
RightHand -3.400134 -0.000000 -8.091926
RightHandThumb1 -24.326973 -0.000000 -32.862282
LeftShoulder -18.017412 33.797968 0.508694
LeftArm 52.498438 -15.486861 -72.263929
LeftForeArm 26.465540 -0.000000 114.486966
LeftHand -26.497169 -0.000000 12.025584
LeftHandThumb1 -26.253704 0.000000 33.147579
Head 24.526277 1.409466 12.377646
1706
root 5.592294 37.004924 6.053294 -15.792341 -12.822915 -4.181759
RightUpLeg 5.669933 -29.716376 -16.052068
RightLeg 118.035268 -0.000000 -0.000000
RightFoot -6.047201 -18.821403 9.729289
RightToeBase -5.740079 -0.000000 0.000000
LeftUpLeg 24.674436 5.033992 -3.369997
LeftLeg 0.251635 -0.000000 -0.000000
LeftFoot -14.364191 15.306372 -10.119431
LeftToeBase 6.384251 -0.000000 -0.000000
Spine 22.528456 -3.846407 -10.978959
RightShoulder 0.830986 -31.527895 -5.267110
RightArm 20.685410 -22.944881 64.954300
RightForeArm 7.281728 -0.000000 48.557663
RightHand -3.513331 -0.000000 -7.807956
RightHandThumb1 -24.326973 -0.000000 -32.862282
LeftShoulder -18.045722 33.804603 0.499783
LeftArm 52.499238 -15.395879 -72.256029
LeftForeArm 26.592966 -0.000000 114.518962
LeftHand -26.547603 -0.000000 11.945159
LeftHandThumb1 -26.253704 0.000000 33.147579
Head 24.533686 1.454830 12.317334
1707
root 5.600106 37.003827 6.058963 -15.851152 -12.855866 -4.148337
RightUpLeg 5.579919 -29.604046 -16.172235
RightLeg 118.046059 -0.000000 -0.000000
RightFoot -5.988602 -18.645538 9.755108
RightToeBase -5.469365 -0.000000 0.000000
LeftUpLeg 24.708756 5.098280 -3.383361
LeftLeg 0.307787 -0.000000 -0.000000
LeftFoot -14.394459 15.219207 -10.177812
LeftToeBase 6.471284 -0.000000 -0.000000
Spine 22.597668 -3.837891 -10.984504
RightShoulder 0.872808 -31.557629 -5.350467
RightArm 20.690046 -23.019671 64.951225
RightForeArm 7.258839 -0.000000 48.564057
RightHand -3.472317 0.000000 -7.758535
RightHandThumb1 -24.326973 -0.000000 -32.862282
LeftShoulder -18.104226 33.831804 0.463299
LeftArm 52.521509 -15.309670 -72.254000
LeftForeArm 26.582050 -0.000000 114.557838
LeftHand -26.600242 -0.000000 11.998172
LeftHandThumb1 -26.253704 0.000000 33.147579
Head 24.550487 1.515735 12.265740
1708
root 5.609590 37.001125 6.064894 -15.908882 -12.916793 -4.100544
RightUpLeg 5.435171 -29.465458 -16.283233
RightLeg 117.952178 -0.000000 -0.000000
RightFoot -5.855337 -18.616290 9.581545
RightToeBase -5.802289 -0.000000 0.000000
LeftUpLeg 24.754666 5.172253 -3.412887
LeftLeg 0.331149 -0.000000 -0.000000
LeftFoot -14.393656 15.149807 -10.206835
LeftToeBase 6.440619 -0.000000 -0.000000
Spine 22.658097 -3.786212 -10.986943
RightShoulder 0.890305 -31.599940 -5.427596
RightArm 20.725010 -23.162552 64.914850
RightForeArm 7.110752 0.000000 48.531536
RightHand -3.354605 -0.000000 -7.799620
RightHandThumb1 -24.326973 -0.000000 -32.862282
LeftShoulder -18.137083 33.853876 0.449793
LeftArm 52.529714 -15.247063 -72.279634
LeftForeArm 26.620198 -0.000000 114.597416
LeftHand -26.615708 -0.000000 11.956078
LeftHandThumb1 -26.253704 0.000000 33.147579
Head 24.547629 1.549211 12.221327
1709
root 5.618881 36.997199 6.068650 -15.949841 -12.995644 -4.052682
RightUpLeg 5.219914 -29.298581 -16.373240
RightLeg 117.748630 -0.000000 -0.000000
RightFoot -5.768652 -18.541329 9.602416
RightToeBase -5.925918 -0.000000 0.000000
LeftUpLeg 24.788579 5.199019 -3.464770
LeftLeg 0.348637 -0.000000 -0.000000
LeftFoot -14.367012 15.151673 -10.145635
LeftToeBase 6.377994 -0.000000 -0.000000
Spine 22.700032 -3.715683 -10.989353
RightShoulder 0.900293 -31.632400 -5.482445
RightArm 20.726740 -23.219021 64.902520
RightForeArm 7.012558 -0.000000 48.537360
RightHand -3.351116 -0.000000 -7.882829
RightHandThumb1 -24.326973 -0.000000 -32.862282
LeftShoulder -18.144331 33.851976 0.469290
LeftArm 52.525511 -15.185903 -72.339712
LeftForeArm 26.633471 0.000000 114.655216
LeftHand -26.683005 -0.000000 11.861573
LeftHandThumb1 -26.253704 0.000000 33.147579
Head 24.536128 1.554396 12.187351
1710
root 5.627092 36.992358 6.073188 -16.001405 -13.101093 -4.018993
RightUpLeg 4.988303 -29.147599 -16.443772
RightLeg 117.383216 -0.000000 -0.000000
RightFoot -5.599411 -18.634860 9.203033
RightToeBase -6.212326 -0.000000 0.000000
LeftUpLeg 24.857454 5.242942 -3.501003
LeftLeg 0.319799 -0.000000 -0.000000
LeftFoot -14.364787 15.164975 -10.144258
LeftToeBase 6.385647 -0.000000 -0.000000
Spine 22.757852 -3.605594 -10.958113
RightShoulder 0.878833 -31.649032 -5.527779
RightArm 20.720279 -23.291850 64.874301
RightForeArm 7.087310 -0.000000 48.572095
RightHand -3.412758 -0.000000 -7.792248
RightHandThumb1 -24.326973 -0.000000 -32.862282
LeftShoulder -18.152764 33.883856 0.470797
LeftArm 52.552292 -15.133609 -72.361821
LeftForeArm 26.590155 0.000000 114.706665
LeftHand -26.684030 -0.000000 11.929614
LeftHandThumb1 -26.253704 0.000000 33.147579
Head 24.498513 1.539194 12.165711
1711
root 5.634406 36.987777 6.073416 -16.029360 -13.202230 -3.987895
RightUpLeg 4.694171 -28.922885 -16.500789
RightLeg 116.911301 -0.000000 -0.000000
RightFoot -5.537071 -18.468946 9.267034
RightToeBase -5.757592 -0.000000 0.000000
LeftUpLeg 24.894205 5.258145 -3.549008
LeftLeg 0.289571 -0.000000 -0.000000
LeftFoot -14.370548 15.225330 -10.170563
LeftToeBase 6.352271 -0.000000 -0.000000
Spine 22.798828 -3.529656 -10.950230
RightShoulder 0.885272 -31.661007 -5.556272
RightArm 20.730069 -23.376347 64.813793
RightForeArm 7.167085 0.000000 48.579593
RightHand -3.364786 0.000000 -7.603151
RightHandThumb1 -24.326973 -0.000000 -32.862282
LeftShoulder -18.175989 33.889584 0.484619
LeftArm 52.538830 -15.103801 -72.389832
LeftForeArm 26.641796 -0.000000 114.768985
LeftHand -26.717635 -0.000000 11.851716
LeftHandThumb1 -26.253704 0.000000 33.147579
Head 24.468251 1.526013 12.161694
